<?xml version="1.0" standalone="no"?>
<!DOCTYPE svg PUBLIC "-//W3C//DTD SVG 20010904//EN"
 "http://www.w3.org/TR/2001/REC-SVG-20010904/DTD/svg10.dtd">
<svg version="1.0" xmlns="http://www.w3.org/2000/svg"
 width="503.000000pt" height="503.000000pt" viewBox="0 0 503.000000 503.000000"
 preserveAspectRatio="xMidYMid meet">
<metadata>
Created by potrace 1.11, written by Peter Selinger 2001-2013
</metadata>
<g transform="translate(0.000000,503.000000) scale(0.100000,-0.100000)"
fill="#000000" stroke="none">
<path d="M2280 5019 c-84 -9 -151 -19 -170 -24 -8 -2 -31 -7 -50 -10 -151 -24
-390 -104 -568 -190 -678 -327 -1157 -963 -1287 -1710 -25 -148 -30 -207 -30
-400 0 -210 5 -268 36 -430 12 -60 22 -114 23 -120 1 -5 5 -16 9 -22 4 -7 9
-27 11 -45 2 -18 11 -49 19 -69 9 -19 19 -48 23 -65 3 -16 24 -71 46 -122 21
-51 36 -98 32 -105 -4 -7 -4 -9 1 -5 10 10 67 -101 59 -114 -4 -6 -2 -8 3 -5
12 8 26 -20 17 -34 -3 -5 -2 -8 3 -7 4 2 9 -1 10 -6 1 -5 5 -12 10 -15 5 -3
22 -28 37 -55 29 -50 144 -217 155 -226 4 -3 23 -26 44 -51 29 -37 34 -48 24
-59 -10 -12 -9 -12 4 -2 17 12 39 -6 82 -68 9 -13 17 -22 17 -18 0 3 22 -15
48 -41 26 -25 46 -49 44 -53 -2 -5 3 -8 11 -8 19 0 49 -34 40 -45 -5 -4 -2 -5
4 -1 7 4 18 2 25 -4 48 -40 66 -54 85 -67 13 -8 20 -19 17 -24 -3 -5 2 -6 10
-3 9 4 18 -1 22 -10 3 -9 10 -16 15 -16 15 0 84 -52 81 -62 -1 -5 2 -7 7 -4 5
3 42 -13 83 -36 40 -24 96 -54 123 -68 28 -14 53 -29 56 -33 3 -5 8 -8 10 -6
7 4 78 -25 74 -30 -2 -3 8 -7 22 -8 14 0 29 -6 33 -13 4 -6 10 -11 14 -11 25
4 36 0 30 -11 -5 -7 -3 -8 5 -4 7 5 24 3 39 -3 71 -28 89 -34 111 -37 13 -2
31 -6 40 -10 9 -4 21 -8 28 -10 7 -1 42 -10 79 -19 92 -23 184 -36 339 -49 28
-2 52 -5 55 -6 15 -4 243 0 248 4 3 3 11 1 19 -5 7 -6 13 -7 13 -2 0 5 21 10
48 11 26 1 80 7 119 13 40 6 78 7 84 3 7 -4 9 -3 6 3 -4 6 14 13 45 17 28 4
60 12 70 17 13 7 18 6 18 -3 0 -10 2 -10 9 0 12 20 84 34 93 19 5 -8 8 -7 8 5
0 10 12 19 33 24 40 10 38 9 62 18 11 4 34 13 50 19 31 10 78 30 152 61 23 10
47 15 54 11 7 -5 10 -4 6 2 -4 6 27 28 73 52 43 22 104 56 134 76 31 20 56 32
56 28 0 -4 4 -3 8 2 16 23 65 54 75 48 6 -3 7 -1 3 5 -4 7 -3 12 3 12 6 0 19
9 30 21 11 12 24 18 29 15 5 -3 12 4 15 16 4 12 9 20 12 17 3 -4 36 22 73 57
37 35 73 61 80 59 7 -3 11 -1 8 4 -3 4 25 40 62 78 74 77 142 154 142 160 0
15 54 72 63 66 5 -3 8 -2 5 3 -7 13 27 70 40 67 6 -2 9 4 6 12 -4 8 -1 15 5
15 6 0 11 7 11 15 0 8 5 15 10 15 6 0 10 4 10 9 0 21 73 130 83 124 6 -3 7 -1
3 5 -7 12 19 72 32 72 4 0 8 12 8 26 1 14 9 33 17 42 8 9 17 26 19 37 2 11 9
19 15 18 5 -1 9 9 7 23 -1 14 3 27 9 30 7 2 13 16 14 30 0 15 7 30 15 35 7 5
10 9 5 9 -4 0 0 17 9 37 8 21 17 47 20 57 2 11 10 40 18 65 8 25 18 63 22 83
3 21 9 36 13 33 4 -2 5 10 3 27 -3 17 -1 28 4 25 5 -3 10 9 11 26 4 59 15 132
22 137 16 13 22 436 8 569 -47 435 -225 873 -495 1215 -79 101 -302 321 -397
393 -336 254 -694 406 -1100 469 -119 18 -453 26 -565 13z"/>
<path d="M4580 1436 c0 -2 8 -10 18 -17 15 -13 16 -12 3 4 -13 16 -21 21 -21
13z"/>
<path d="M4355 1159 c-4 -6 -5 -12 -2 -15 2 -3 7 2 10 11 7 17 1 20 -8 4z"/>
<path d="M676 1148 c3 -5 10 -6 15 -3 13 9 11 12 -6 12 -8 0 -12 -4 -9 -9z"/>
<path d="M793 1045 c0 -8 4 -12 9 -9 5 3 6 10 3 15 -9 13 -12 11 -12 -6z"/>
<path d="M835 961 c-3 -5 -2 -12 3 -15 5 -3 9 1 9 9 0 17 -3 19 -12 6z"/>
<path d="M4115 910 c3 -5 8 -10 11 -10 2 0 4 5 4 10 0 6 -5 10 -11 10 -5 0 -7
-4 -4 -10z"/>
<path d="M1196 717 c3 -10 9 -15 12 -12 3 3 0 11 -7 18 -10 9 -11 8 -5 -6z"/>
<path d="M1065 670 c-3 -6 1 -7 9 -4 18 7 21 14 7 14 -6 0 -13 -4 -16 -10z"/>
<path d="M3996 663 c-6 -14 -5 -15 5 -6 7 7 10 15 7 18 -3 3 -9 -2 -12 -12z"/>
<path d="M1200 630 c-9 -6 -10 -10 -3 -10 6 0 15 5 18 10 8 12 4 12 -15 0z"/>
<path d="M3675 510 c3 -5 8 -10 11 -10 2 0 4 5 4 10 0 6 -5 10 -11 10 -5 0 -7
-4 -4 -10z"/>
<path d="M1385 430 c-3 -6 1 -7 9 -4 18 7 21 14 7 14 -6 0 -13 -4 -16 -10z"/>
<path d="M3390 430 c0 -5 5 -10 11 -10 5 0 7 5 4 10 -3 6 -8 10 -11 10 -2 0
-4 -4 -4 -10z"/>
<path d="M3466 428 c3 -5 10 -6 15 -3 13 9 11 12 -6 12 -8 0 -12 -4 -9 -9z"/>
<path d="M3556 432 c-3 -5 1 -9 9 -9 8 0 12 4 9 9 -3 4 -7 8 -9 8 -2 0 -6 -4
-9 -8z"/>
<path d="M1636 352 c-3 -5 1 -9 9 -9 8 0 12 4 9 9 -3 4 -7 8 -9 8 -2 0 -6 -4
-9 -8z"/>
<path d="M2713 325 c0 -8 4 -12 9 -9 5 3 6 10 3 15 -9 13 -12 11 -12 -6z"/>
<path d="M2627 309 c7 -7 15 -10 18 -7 3 3 -2 9 -12 12 -14 6 -15 5 -6 -5z"/>
<path d="M2190 231 c0 -6 4 -13 10 -16 6 -3 7 1 4 9 -7 18 -14 21 -14 7z"/>
<path d="M2830 230 c0 -5 5 -10 11 -10 5 0 7 5 4 10 -3 6 -8 10 -11 10 -2 0
-4 -4 -4 -10z"/>
<path d="M2346 188 c3 -5 10 -6 15 -3 13 9 11 12 -6 12 -8 0 -12 -4 -9 -9z"/>
<path d="M2476 152 c-3 -5 1 -9 9 -9 8 0 12 4 9 9 -3 4 -7 8 -9 8 -2 0 -6 -4
-9 -8z"/>
</g>
</svg>
