<svg xmlns="http://www.w3.org/2000/svg" viewBox="0 0 50.104 48.861"><g data-name="Group 62472"><g data-name="Group 62471"><path data-name="Path 36065" d="M50.104 8.873v31.115a8.856 8.856 0 01-8.872 8.872H8.872A8.856 8.856 0 010 39.988V8.873A8.856 8.856 0 018.872.001h32.359a8.856 8.856 0 018.872 8.872zm-2.111 30.3V9.661a7.568 7.568 0 00-7.575-7.575H9.661a7.589 7.589 0 00-7.575 7.6v29.488a7.594 7.594 0 007.575 7.6h30.782a7.244 7.244 0 005.315-2.185 7.544 7.544 0 002.235-5.414z" fill="#37c5ff"/><path data-name="Path 36066" d="M47.994 9.662v29.513a7.544 7.544 0 01-2.235 5.415 7.244 7.244 0 01-5.315 2.185H9.661a7.594 7.594 0 01-7.575-7.6V9.687a7.589 7.589 0 017.575-7.6h30.755a7.568 7.568 0 017.575 7.575zm-9.278 20.744a4.945 4.945 0 00-.979-3.04 9.5 9.5 0 00-3.495-2.528 8.823 8.823 0 01-2.2-1.4 1.607 1.607 0 01-.5-1.091 1.553 1.553 0 01.511-1.082 2.434 2.434 0 011.777-.521 7.213 7.213 0 013.788.991c.221.016.33-.069.33-.256v-2.946a.764.764 0 00-.037-.243.49.49 0 00-.165-.215 9.115 9.115 0 00-3.916-.586 6.08 6.08 0 00-4.408 1.512 5.105 5.105 0 00-.549 6.737 9.384 9.384 0 003.358 2.354 7.863 7.863 0 012.148 1.422 1.818 1.818 0 01.546 1.169 1.523 1.523 0 01-.586 1.222 2.948 2.948 0 01-1.88.483 8.563 8.563 0 01-4.346-1.3c-.171-.084-.256-.025-.256.178v3.2a.686.686 0 00.025.2.241.241 0 00.153.128 8.561 8.561 0 004.424.966 7.115 7.115 0 004.474-1.372 4.731 4.731 0 001.783-3.982zm-14.172-6.927a8.685 8.685 0 00-.723-9.876q-1.936-2.188-6.431-2.188-3.231 0-5.593.1a.763.763 0 00-.318.075c-.112.053-.165.122-.165.206v23.361c0 .187.075.265.228.231h3.329c.221 0 .306-.078.256-.231v-8.361c.287 0 .524.006.711.025.221.016.558.025 1.016.025a11.837 11.837 0 004.461-.814 7.039 7.039 0 003.229-2.553z" fill="#28253a"/><path data-name="Path 36067" d="M37.952 21.48c0 .187-.109.271-.33.256a7.212 7.212 0 00-3.788-.991 2.434 2.434 0 00-1.777.521 1.553 1.553 0 00-.511 1.082 1.607 1.607 0 00.5 1.091 8.827 8.827 0 002.2 1.4 9.5 9.5 0 013.495 2.528 4.944 4.944 0 01.979 3.039 4.731 4.731 0 01-1.78 3.99 7.115 7.115 0 01-4.474 1.372 8.56 8.56 0 01-4.424-.966.241.241 0 01-.153-.128.686.686 0 01-.025-.2v-3.2c0-.2.084-.262.256-.178a8.563 8.563 0 004.346 1.3 2.949 2.949 0 001.88-.483 1.523 1.523 0 00.586-1.222 1.817 1.817 0 00-.546-1.169 7.863 7.863 0 00-2.148-1.422 9.383 9.383 0 01-3.358-2.354 5.105 5.105 0 01.549-6.737 6.08 6.08 0 014.408-1.512 9.114 9.114 0 013.916.586.489.489 0 01.165.215.764.764 0 01.037.243z" fill="#37c5ff"/><path data-name="Path 36068" d="M25.75 18.964a7.767 7.767 0 01-1.206 4.514 7.038 7.038 0 01-3.23 2.553 11.836 11.836 0 01-4.461.814c-.458 0-.795-.009-1.016-.025a7.42 7.42 0 00-.711-.025v8.361c.05.153-.034.231-.256.231h-3.327c-.153.034-.228-.044-.228-.231V11.797c0-.084.053-.153.165-.206a.762.762 0 01.318-.075q2.361-.1 5.593-.1 4.5 0 6.431 2.188a7.807 7.807 0 011.928 5.36zm-3.887.078a3.885 3.885 0 00-1.22-3.126 5.08 5.08 0 00-3.4-1.044c-.848 0-1.543.028-2.086.078v8.389c.253.016.505.025.748.025h1.032a6.807 6.807 0 003.42-.864q1.504-.865 1.505-3.458z" fill="#37c5ff"/><path data-name="Path 36069" d="M20.641 15.915a3.885 3.885 0 011.222 3.127q0 2.591-1.512 3.457a6.807 6.807 0 01-3.42.864h-1.032c-.243 0-.5-.009-.748-.025v-8.389c.542-.05 1.238-.078 2.086-.078a5.08 5.08 0 013.404 1.044z" fill="#28253a"/></g></g></svg>