<svg xmlns="http://www.w3.org/2000/svg" viewBox="0 0 530 600"><g fill="none" fill-rule="evenodd"><path fill="#FFF" d="M264.997 0l264.997 149.95v299.899L264.997 599.798 0 449.849V149.95z"/><g><path fill="#8ED5FA" d="M125.206 394.038L255.4 465.652v92.065L46.483 439.501l78.723-45.463zm278.735 0l78.723 45.463-208.917 118.216v-92.065l130.194-71.614zM32.183 179.368l76.444 44.146v158.908L32.183 426.57V179.367zm464.781 0v247.201l-76.444-44.147V223.514l76.444-44.147zM255.4 42.103v89.006l-137.268 75.506-1.062.583-75.936-43.853L255.4 42.104zm18.347 0l214.266 121.242-75.936 43.853-1.062-.583-137.268-75.506V42.104z"/><path fill="#1C78C0" d="M126.974 234.11L255.4 308.276v136.436L126.974 374.07V234.11zm275.199 0v139.96l-128.426 70.642V308.276l128.426-74.166zm-137.6 68.829l.017.03h-.034l.017-.03zm0-155.934l128.932 70.92-128.932 74.458-128.931-74.458 128.932-70.92z"/></g></g></svg>