<svg xmlns="http://www.w3.org/2000/svg" viewBox="0 0 50.845 49.584"><g data-name="Group 62474"><g data-name="Group 62473"><path data-name="Path 36070" d="M41.841.001a8.987 8.987 0 019 9v31.576a8.987 8.987 0 01-9 9H9.003a8.981 8.981 0 01-9-9V9.004a8.981 8.981 0 019-9zm6.862 39.753V9.804a7.68 7.68 0 00-7.687-7.687H9.801A7.707 7.707 0 002.114 9.83v29.924a7.712 7.712 0 007.688 7.713h31.24a7.339 7.339 0 005.391-2.218 7.645 7.645 0 002.27-5.495z" fill="#ff2bc2"/><path data-name="Path 36071" d="M48.703 9.805v29.949a7.645 7.645 0 01-2.271 5.5 7.339 7.339 0 01-5.391 2.218H9.801a7.712 7.712 0 01-7.687-7.713V9.83a7.707 7.707 0 017.687-7.713h31.215a7.68 7.68 0 017.687 7.688zm-7.6 24.35a.838.838 0 00.013-.155c-.07-.807-.1-1.5-.1-2.063v-19.35a.155.155 0 00-.038-.114.234.234 0 00-.168-.041h-3.432a.179.179 0 00-.13.054.222.222 0 00-.051.155v5.5a10.13 10.13 0 00-1.11-.054 7.739 7.739 0 00-6.15 2.553 9.157 9.157 0 00-2.233 6.245q0 4.333 2.208 6.46a7.8 7.8 0 005.66 2.129 13.18 13.18 0 005.419-1.237c.066-.022.107-.05.116-.082zm-14.649 1.032a.329.329 0 00-.038-.256l-5.933-11.482 5.6-10.731c.085-.206.041-.31-.13-.31h-3.432a.346.346 0 00-.231.066.479.479 0 00-.13.193v.025l-1.057 2.268q-1.447 3.023-2.812 6.09h-.051q-1.419-3.123-2.892-6.166c-.361-.756-.721-1.506-1.082-2.243-.019-.1-.051-.168-.1-.2a.535.535 0 00-.231-.038h-3.663a.2.2 0 00-.168.092.187.187 0 00.013.218l5.6 11.091-5.78 11.145a.235.235 0 00-.051.206q.024.1.18.1h3.508a.42.42 0 00.386-.231q2.064-4.337 4.024-8.722h.025q2.145 4.518 4.154 8.694a.4.4 0 00.155.221.558.558 0 00.285.063h3.68a.16.16 0 00.171-.093z" fill="#2e001e"/><path data-name="Path 36072" d="M41.12 34a.837.837 0 01-.013.155c-.01.035-.051.06-.117.079a13.177 13.177 0 01-5.419 1.237 7.8 7.8 0 01-5.66-2.129q-2.207-2.126-2.208-6.46a9.157 9.157 0 012.234-6.245 7.739 7.739 0 016.15-2.553c.225 0 .414.006.569.013s.335.022.541.041v-5.5a.222.222 0 01.051-.155.179.179 0 01.13-.054h3.432a.234.234 0 01.168.041.155.155 0 01.038.114v19.348c-.001.572.034 1.262.104 2.068zm-3.948-2.063l.025-10.475a3.118 3.118 0 00-1.237-.206q-4.465.337-4.464 5.444c0 1.958.4 3.363 1.212 4.2a3.988 3.988 0 002.993 1.262 4.62 4.62 0 001.471-.225z" fill="#ff2bc2"/><path data-name="Path 36073" d="M37.198 21.463l-.025 10.475a4.622 4.622 0 01-1.471.231 3.988 3.988 0 01-2.993-1.262c-.807-.841-1.212-2.246-1.212-4.2q0-5.111 4.464-5.445a3.117 3.117 0 011.237.201z" fill="#2e001e"/><path data-name="Path 36074" d="M26.415 34.93a.329.329 0 01.038.256.16.16 0 01-.168.1h-3.689a.558.558 0 01-.285-.063.4.4 0 01-.155-.221q-2.012-4.176-4.154-8.693h-.025q-1.96 4.389-4.024 8.722a.42.42 0 01-.386.231h-3.508q-.157 0-.18-.1a.235.235 0 01.051-.206l5.78-11.145-5.6-11.091a.187.187 0 01-.013-.218.2.2 0 01.168-.092h3.663a.536.536 0 01.231.038c.054.029.085.092.1.2.361.737.721 1.487 1.082 2.243q1.471 3.047 2.892 6.166h.051q1.367-3.07 2.812-6.09.541-1.158 1.057-2.268v-.025a.478.478 0 01.13-.193.347.347 0 01.231-.066h3.432c.171 0 .215.1.13.31l-5.6 10.731z" fill="#ff2bc2"/></g></g></svg>