<svg xmlns="http://www.w3.org/2000/svg" viewBox="0 0 28 32"><g class="nc-icon-wrapper" fill="#f0db4f"><path d="M14 31.75c-.419 0-.844-.112-1.213-.325l-3.856-2.281c-.575-.325-.293-.438-.106-.5.769-.269.925-.325 1.744-.794.087-.05.2-.031.287.025l2.963 1.756a.362.362 0 00.356 0l11.544-6.662a.37.37 0 00.175-.313V9.331a.372.372 0 00-.181-.319L14.175 2.356a.362.362 0 00-.356 0L2.287 9.02a.365.365 0 00-.18.319v13.318c0 .125.068.25.18.307l3.163 1.825c1.719.856 2.769-.15 2.769-1.17v-13.15a.33.33 0 01.337-.33h1.463c.181 0 .337.143.337.33v13.157c0 2.288-1.25 3.6-3.419 3.6-.668 0-1.193 0-2.656-.725l-3.025-1.744A2.43 2.43 0 01.044 22.65V9.331c0-.862.462-1.675 1.212-2.106L12.787.563a2.53 2.53 0 012.425 0L26.756 7.23a2.43 2.43 0 011.213 2.107v13.318c0 .863-.463 1.669-1.213 2.107l-11.544 6.662A2.43 2.43 0 0114 31.75zm9.319-13.131c0 2.512-2.1 3.956-5.75 3.962-5.056 0-6.113-2.319-6.113-4.262a.33.33 0 01.332-.332h1.493a.33.33 0 01.332.282c.225 1.518.893 2.287 3.95 2.287 2.43 0 3.468-.55 3.468-1.837 0-.744-.293-1.3-4.075-1.669-3.156-.313-5.112-1.013-5.112-3.538 0-2.33 1.962-3.718 5.256-3.718 3.7 0 5.531 1.281 5.763 4.037a.348.348 0 01-.088.256.326.326 0 01-.244.107h-1.5a.335.335 0 01-.325-.263c-.362-1.6-1.237-2.112-3.606-2.112-2.656 0-2.962.925-2.962 1.618 0 .838.362 1.082 3.95 1.557 3.543.468 5.23 1.131 5.23 3.625z"/></g></svg>