<svg xmlns="http://www.w3.org/2000/svg" width="53" height="60" viewBox="0 0 530 600">
  <g fill="none" fill-rule="evenodd">
    <polygon fill="#FFF" points="264.997 0 529.994 149.95 529.994 449.849 264.997 599.798 0 449.849 0 149.95"/>
    <g transform="translate(32.183 41.78)">
      <path fill="#8ED5FA" d="M93.023,352.258308 L223.217,423.872308 L223.217,515.937308 L14.3,397.721308 L93.023,352.258308 Z M371.758,352.258308 L450.481,397.721308 L241.564,515.937308 L241.564,423.872308 L371.758,352.258308 Z M0,137.587308 L76.444,181.734308 L76.444,340.642308 L0,384.789308 L0,137.587308 Z M464.781,137.587308 L464.781,384.789308 L388.337,340.642308 L388.337,181.734308 L464.781,137.587308 Z M223.217,0.324307842 L223.217,89.3303078 L85.9493766,164.835934 L84.887,165.419308 L8.951,121.566308 L223.217,0.324307842 Z M241.564,0.324307842 L455.83,121.566308 L379.894,165.419308 L378.832133,164.835934 L241.564,89.3303078 L241.564,0.324307842 Z"/>
      <path fill="#1C78C0" d="M94.7909657,192.329892 L223.216966,266.495892 L223.216966,402.931892 L94.7909657,332.290348 L94.7909657,192.329892 Z M369.989966,192.329892 L369.990544,332.290348 L241.563966,402.931892 L241.563966,266.495892 L369.989966,192.329892 Z M232.389966,261.158892 L232.406966,261.188892 L232.372966,261.188892 L232.389966,261.158892 Z M232.390755,105.224892 L361.321966,176.144892 L232.389966,250.602892 L103.458966,176.144892 L232.390755,105.224892 Z"/>
    </g>
  </g>
</svg>
