<svg xmlns="http://www.w3.org/2000/svg" width="42" height="40" viewBox="0 0 50.104 48.861">
  <g id="Group_62472" data-name="Group 62472" transform="translate(-73.38 -622.439)">
    <g id="Group_62471" data-name="Group 62471" transform="translate(73.38 622.44)">
      <path id="Path_36065" data-name="Path 36065" d="M123.484,631.312v31.115a8.856,8.856,0,0,1-8.872,8.872H82.252a8.856,8.856,0,0,1-8.872-8.872V631.312a8.856,8.856,0,0,1,8.872-8.872h32.359a8.856,8.856,0,0,1,8.872,8.872Zm-2.111,30.3V632.1a7.568,7.568,0,0,0-7.575-7.575H83.041a7.589,7.589,0,0,0-7.575,7.6v29.488a7.594,7.594,0,0,0,7.575,7.6h30.782a7.244,7.244,0,0,0,5.315-2.185A7.544,7.544,0,0,0,121.373,661.614Z" transform="translate(-73.38 -622.44)" fill="#37c5ff"/>
      <path id="Path_36066" data-name="Path 36066" d="M125.978,636.705v29.513a7.544,7.544,0,0,1-2.235,5.415,7.244,7.244,0,0,1-5.315,2.185H87.645a7.594,7.594,0,0,1-7.575-7.6V636.73a7.589,7.589,0,0,1,7.575-7.6H118.4a7.568,7.568,0,0,1,7.575,7.575ZM116.7,657.449a4.945,4.945,0,0,0-.979-3.04,9.5,9.5,0,0,0-3.495-2.528,8.823,8.823,0,0,1-2.2-1.4,1.607,1.607,0,0,1-.5-1.091,1.553,1.553,0,0,1,.511-1.082,2.434,2.434,0,0,1,1.777-.521,7.213,7.213,0,0,1,3.788.991c.221.016.33-.069.33-.256v-2.946a.764.764,0,0,0-.037-.243.49.49,0,0,0-.165-.215,9.115,9.115,0,0,0-3.916-.586,6.08,6.08,0,0,0-4.408,1.512,5.105,5.105,0,0,0-.549,6.737,9.384,9.384,0,0,0,3.358,2.354,7.863,7.863,0,0,1,2.148,1.422,1.818,1.818,0,0,1,.546,1.169,1.523,1.523,0,0,1-.586,1.222,2.948,2.948,0,0,1-1.88.483,8.563,8.563,0,0,1-4.346-1.3c-.171-.084-.256-.025-.256.178v3.2a.686.686,0,0,0,.025.2.241.241,0,0,0,.153.128,8.561,8.561,0,0,0,4.424.966,7.115,7.115,0,0,0,4.474-1.372A4.731,4.731,0,0,0,116.7,657.449Zm-14.172-6.927a8.685,8.685,0,0,0-.723-9.876q-1.936-2.188-6.431-2.188-3.231,0-5.593.1a.763.763,0,0,0-.318.075c-.112.053-.165.122-.165.206V662.2c0,.187.075.265.228.231h3.329c.221,0,.306-.078.256-.231v-8.361c.287,0,.524.006.711.025.221.016.558.025,1.016.025a11.837,11.837,0,0,0,4.461-.814A7.039,7.039,0,0,0,102.528,650.522Z" transform="translate(-77.984 -627.044)" fill="#28253a"/>
      <path id="Path_36067" data-name="Path 36067" d="M172.841,682.53c0,.187-.109.271-.33.256a7.212,7.212,0,0,0-3.788-.991,2.434,2.434,0,0,0-1.777.521,1.553,1.553,0,0,0-.511,1.082,1.607,1.607,0,0,0,.5,1.091,8.827,8.827,0,0,0,2.2,1.4,9.5,9.5,0,0,1,3.495,2.528,4.944,4.944,0,0,1,.979,3.039,4.731,4.731,0,0,1-1.78,3.99,7.115,7.115,0,0,1-4.474,1.372,8.56,8.56,0,0,1-4.424-.966.241.241,0,0,1-.153-.128.686.686,0,0,1-.025-.2v-3.2c0-.2.084-.262.256-.178a8.563,8.563,0,0,0,4.346,1.3,2.949,2.949,0,0,0,1.88-.483,1.523,1.523,0,0,0,.586-1.222,1.817,1.817,0,0,0-.546-1.169,7.863,7.863,0,0,0-2.148-1.422,9.383,9.383,0,0,1-3.358-2.354,5.105,5.105,0,0,1,.549-6.737,6.08,6.08,0,0,1,4.408-1.512,9.114,9.114,0,0,1,3.916.586.489.489,0,0,1,.165.215.764.764,0,0,1,.037.243Z" transform="translate(-134.889 -661.051)" fill="#37c5ff"/>
      <path id="Path_36068" data-name="Path 36068" d="M124.107,666.6a7.767,7.767,0,0,1-1.206,4.514,7.038,7.038,0,0,1-3.23,2.553,11.836,11.836,0,0,1-4.461.814c-.458,0-.795-.009-1.016-.025-.187-.019-.424-.025-.711-.025v8.361c.05.153-.034.231-.256.231H109.9c-.153.034-.228-.044-.228-.231V659.433c0-.084.053-.153.165-.206a.762.762,0,0,1,.318-.075q2.361-.1,5.593-.1,4.5,0,6.431,2.188A7.807,7.807,0,0,1,124.107,666.6Zm-3.887.078A3.885,3.885,0,0,0,119,663.552a5.08,5.08,0,0,0-3.4-1.044c-.848,0-1.543.028-2.086.078v8.389c.253.016.505.025.748.025h1.032a6.807,6.807,0,0,0,3.42-.864Q120.218,669.271,120.219,666.678Z" transform="translate(-98.357 -647.637)" fill="#37c5ff"/>
      <path id="Path_36069" data-name="Path 36069" d="M127.47,671.184a3.885,3.885,0,0,1,1.222,3.127q0,2.591-1.512,3.457a6.807,6.807,0,0,1-3.42.864h-1.032c-.243,0-.5-.009-.748-.025v-8.389c.542-.05,1.238-.078,2.086-.078A5.08,5.08,0,0,1,127.47,671.184Z" transform="translate(-106.829 -655.27)" fill="#28253a"/>
    </g>
  </g>
</svg>
