<svg xmlns="http://www.w3.org/2000/svg" width="50.72" height="49.463" viewBox="0 0 50.72 49.463">
  <g id="Group_62478" data-name="Group 62478" transform="translate(-73.38 -422.039)">
    <g id="Group_62477" data-name="Group 62477" transform="translate(73.38 422.04)">
      <path id="Path_36081" data-name="Path 36081" d="M124.1,431.021v31.5a8.965,8.965,0,0,1-8.981,8.981H82.361a8.965,8.965,0,0,1-8.981-8.981v-31.5a8.965,8.965,0,0,1,8.981-8.981h32.757a8.965,8.965,0,0,1,8.981,8.981ZM121.964,461.7V431.82a7.661,7.661,0,0,0-7.669-7.669H83.16a7.682,7.682,0,0,0-7.669,7.694V461.7a7.688,7.688,0,0,0,7.669,7.694h31.16a7.333,7.333,0,0,0,5.381-2.212A7.637,7.637,0,0,0,121.964,461.7Z" transform="translate(-73.38 -422.04)" fill="#ff7e1b"/>
      <path id="Path_36082" data-name="Path 36082" d="M126.542,436.4v29.876a7.637,7.637,0,0,1-2.263,5.482,7.333,7.333,0,0,1-5.381,2.212H87.739a7.688,7.688,0,0,1-7.669-7.694V436.424a7.682,7.682,0,0,1,7.669-7.694h31.135a7.661,7.661,0,0,1,7.669,7.669Zm-9.676,27.509V445.456c0-.224-.095-.316-.281-.284h-3.654q-.312,0-.284.284l.025,18.424c0,.189.1.293.309.309h3.6c.136,0,.218-.025.243-.076A.467.467,0,0,0,116.867,463.908Zm.284-23.779q0-2.135-2.392-2.392a2.432,2.432,0,0,0-1.7.631,2.263,2.263,0,0,0-.694,1.761,2.139,2.139,0,0,0,2.342,2.4,2.549,2.549,0,0,0,1.751-.619A2.252,2.252,0,0,0,117.151,440.129Zm-8.158,24.06c.189,0,.24-.1.155-.309l-7.438-25.243a.342.342,0,0,0-.076-.18.3.3,0,0,0-.205-.05H96.537c-.12,0-.186.076-.205.23-.016.549-.041.963-.076,1.237a3.966,3.966,0,0,1-.155.72l-6.64,23.236a.52.52,0,0,0,.013.271c.025.06.107.088.243.088h3.424a.336.336,0,0,0,.243-.063.575.575,0,0,0,.117-.193l1.852-7.025h7.463l1.9,7.05a.386.386,0,0,0,.388.23Z" transform="translate(-77.959 -426.619)" fill="#41322a"/>
      <path id="Path_36083" data-name="Path 36083" d="M187.514,481.1v18.452a.467.467,0,0,1-.038.205c-.025.05-.107.076-.243.076h-3.6c-.205-.016-.309-.12-.309-.309l-.025-18.424q-.028-.284.284-.284h3.654C187.42,480.785,187.514,480.877,187.514,481.1Z" transform="translate(-148.606 -462.264)" fill="#ff7e1b"/>
      <path id="Path_36084" data-name="Path 36084" d="M184.8,457.27q2.391.256,2.392,2.392a2.251,2.251,0,0,1-.694,1.777,2.549,2.549,0,0,1-1.751.619,2.139,2.139,0,0,1-2.342-2.4,2.263,2.263,0,0,1,.694-1.761A2.432,2.432,0,0,1,184.8,457.27Z" transform="translate(-147.995 -446.152)" fill="#ff7e1b"/>
      <path id="Path_36085" data-name="Path 36085" d="M129.492,484.864c.085.208.035.309-.155.309h-3.885a.386.386,0,0,1-.388-.23l-1.9-7.05H115.7l-1.852,7.025a.575.575,0,0,1-.117.192.335.335,0,0,1-.243.063h-3.424c-.136,0-.218-.028-.243-.088a.52.52,0,0,1-.013-.271l6.64-23.236a3.966,3.966,0,0,0,.155-.72c.035-.275.06-.688.076-1.237.019-.155.085-.23.205-.23h4.892a.3.3,0,0,1,.205.051.342.342,0,0,1,.076.18Zm-12.841-10.73h5.532q-.308-1.236-.8-3.112c-.376-1.392-.751-2.806-1.117-4.248s-.656-2.66-.865-3.654h-.05q-.383,2.163-1.158,5.172T116.651,474.134Z" transform="translate(-98.303 -447.603)" fill="#ff7e1b"/>
      <path id="Path_36086" data-name="Path 36086" d="M137.052,482.224H131.52q.772-2.831,1.543-5.841t1.158-5.172h.05q.312,1.491.865,3.654c.366,1.442.742,2.856,1.117,4.248Q136.746,480.987,137.052,482.224Z" transform="translate(-113.172 -455.693)" fill="#41322a"/>
    </g>
  </g>
</svg>
