<svg xmlns="http://www.w3.org/2000/svg" width="50.844" height="49.582" viewBox="0 0 50.844 49.582">
  <g id="Group_62476" data-name="Group 62476" transform="translate(-319.31 -622.439)">
    <g id="Group_62475" data-name="Group 62475" transform="translate(319.31 622.44)">
      <path id="Path_36075" data-name="Path 36075" d="M370.154,631.443v31.575a8.981,8.981,0,0,1-9,9h-32.84a8.986,8.986,0,0,1-9-9V631.443a8.986,8.986,0,0,1,9-9h32.84a8.981,8.981,0,0,1,9,9Zm-2.138,30.749V632.244a7.685,7.685,0,0,0-7.687-7.687H329.114a7.7,7.7,0,0,0-7.687,7.713v29.923a7.707,7.707,0,0,0,7.687,7.713h31.239a7.344,7.344,0,0,0,5.391-2.218A7.645,7.645,0,0,0,368.015,662.192Z" transform="translate(-319.31 -622.44)" fill="#d392ff"/>
      <path id="Path_36076" data-name="Path 36076" d="M372.589,636.817v29.949a7.645,7.645,0,0,1-2.271,5.495,7.344,7.344,0,0,1-5.391,2.218H333.687A7.707,7.707,0,0,1,326,666.766V636.843a7.7,7.7,0,0,1,7.687-7.713H364.9a7.685,7.685,0,0,1,7.687,7.687Zm-7.561,17.7a9.939,9.939,0,0,0,.183-2.221,9.127,9.127,0,0,0-.595-3.16,6.168,6.168,0,0,0-1.949-2.708,5.539,5.539,0,0,0-3.6-1.095,5.992,5.992,0,0,0-5.223,2.641A10.837,10.837,0,0,0,352,654.33a11.851,11.851,0,0,0,.747,4.245,6.884,6.884,0,0,0,2.411,3.186,7.365,7.365,0,0,0,4.426,1.212,9.521,9.521,0,0,0,4.2-.8.408.408,0,0,0,.231-.411v-2.632a.17.17,0,0,0-.076-.168.2.2,0,0,0-.18.013,8.569,8.569,0,0,1-3.407.671,4.232,4.232,0,0,1-3.467-1.3,5.314,5.314,0,0,1-1.1-3.417l5.47.025a22.592,22.592,0,0,0,3.483-.155.305.305,0,0,0,.282-.282Zm-14.134,8.124c.155,0,.206-.085.155-.256l-6.656-22.521a.38.38,0,0,0-.063-.168.26.26,0,0,0-.168-.038h-4.413c-.1,0-.155.066-.155.206-.035.5-.063.864-.089,1.095a2.258,2.258,0,0,1-.142.607l-5.906,20.765q-.052.18,0,.247a.256.256,0,0,0,.206.063h3.069a.346.346,0,0,0,.218-.051.287.287,0,0,0,.092-.18l1.651-6.245H345.4l1.727,6.27a.324.324,0,0,0,.335.206Z" transform="translate(-323.884 -627.014)" fill="#19003e"/>
      <path id="Path_36077" data-name="Path 36077" d="M420.218,694.139v2.632a.408.408,0,0,1-.231.411,9.522,9.522,0,0,1-4.2.8,7.366,7.366,0,0,1-4.426-1.212,6.884,6.884,0,0,1-2.411-3.186,11.852,11.852,0,0,1-.747-4.245,10.837,10.837,0,0,1,1.844-6.359,5.992,5.992,0,0,1,5.223-2.642,5.54,5.54,0,0,1,3.6,1.095,6.168,6.168,0,0,1,1.949,2.708,9.126,9.126,0,0,1,.595,3.16,9.94,9.94,0,0,1-.183,2.221.306.306,0,0,1-.282.282,22.6,22.6,0,0,1-3.483.155l-5.47-.025a5.313,5.313,0,0,0,1.1,3.417,4.232,4.232,0,0,0,3.467,1.3,8.571,8.571,0,0,0,3.407-.671.2.2,0,0,1,.18-.013A.17.17,0,0,1,420.218,694.139Zm-2.423-7.352a.463.463,0,0,0,.025-.13,4.575,4.575,0,0,0-.231-1.341,3.14,3.14,0,0,0-.813-1.316,2.3,2.3,0,0,0-1.664-.566,2.488,2.488,0,0,0-2.233,1.072,5.363,5.363,0,0,0-.838,2.515h5.34a1.354,1.354,0,0,0,.389-.028A.779.779,0,0,1,417.795,686.787Z" transform="translate(-380.08 -662.023)" fill="#d392ff"/>
      <path id="Path_36078" data-name="Path 36078" d="M426.12,693.344a.463.463,0,0,1-.025.13.778.778,0,0,0-.025.206,1.354,1.354,0,0,1-.389.029h-5.34a5.363,5.363,0,0,1,.838-2.515,2.487,2.487,0,0,1,2.233-1.072,2.3,2.3,0,0,1,1.664.566,3.139,3.139,0,0,1,.813,1.316A4.574,4.574,0,0,1,426.12,693.344Z" transform="translate(-388.379 -668.71)" fill="#19003e"/>
      <path id="Path_36079" data-name="Path 36079" d="M367.106,685.126c.051.171,0,.256-.155.256h-3.432a.324.324,0,0,1-.335-.206l-1.727-6.27h-6.707l-1.651,6.245a.288.288,0,0,1-.092.18.346.346,0,0,1-.218.051h-3.069a.256.256,0,0,1-.206-.063q-.052-.066,0-.247l5.906-20.765a2.258,2.258,0,0,0,.142-.607c.025-.231.054-.595.089-1.095,0-.139.054-.206.155-.206h4.413a.259.259,0,0,1,.168.038.38.38,0,0,1,.063.168Zm-8.953-9.6h2.477q-.308-1.239-.826-3.119-.489-1.808-.955-3.638T358.1,665.7h-.051q-.7,3.431-1.987,8.127-.233.878-.465,1.7h2.553Z" transform="translate(-339.941 -649.759)" fill="#d392ff"/>
      <path id="Path_36080" data-name="Path 36080" d="M373.84,682.659h-5.03q.233-.826.465-1.7,1.286-4.693,1.987-8.127h.051q.285,1.239.747,3.072t.955,3.638Q373.531,681.419,373.84,682.659Z" transform="translate(-353.151 -656.889)" fill="#19003e"/>
    </g>
  </g>
</svg>
