<svg xmlns="http://www.w3.org/2000/svg" width="50.845" height="49.584" viewBox="0 0 50.845 49.584">
  <g id="Group_62474" data-name="Group 62474" transform="translate(-565.25 -622.439)">
    <g id="Group_62473" data-name="Group 62473" transform="translate(565.25 622.44)">
      <path id="Path_36070" data-name="Path 36070" d="M607.091,622.44a8.987,8.987,0,0,1,9,9v31.576a8.987,8.987,0,0,1-9,9H574.253a8.981,8.981,0,0,1-9-9V631.443a8.981,8.981,0,0,1,9-9Zm6.862,39.753v-29.95a7.68,7.68,0,0,0-7.687-7.687H575.051a7.707,7.707,0,0,0-7.687,7.713v29.924a7.712,7.712,0,0,0,7.688,7.713h31.24a7.339,7.339,0,0,0,5.391-2.218A7.645,7.645,0,0,0,613.953,662.193Z" transform="translate(-565.25 -622.44)" fill="#ff2bc2"/>
      <path id="Path_36071" data-name="Path 36071" d="M618.52,636.818v29.949a7.645,7.645,0,0,1-2.271,5.5,7.339,7.339,0,0,1-5.391,2.218h-31.24a7.712,7.712,0,0,1-7.687-7.713V636.843a7.707,7.707,0,0,1,7.687-7.713h31.215a7.68,7.68,0,0,1,7.687,7.688Zm-7.6,24.35a.838.838,0,0,0,.013-.155c-.07-.807-.1-1.5-.1-2.063V639.6a.155.155,0,0,0-.038-.114.234.234,0,0,0-.168-.041h-3.432a.179.179,0,0,0-.13.054.222.222,0,0,0-.051.155v5.5c-.206-.019-.386-.032-.541-.041s-.345-.013-.569-.013a7.739,7.739,0,0,0-6.15,2.553,9.157,9.157,0,0,0-2.233,6.245q0,4.333,2.208,6.46a7.8,7.8,0,0,0,5.66,2.129,13.18,13.18,0,0,0,5.419-1.237C610.874,661.228,610.915,661.2,610.924,661.168ZM596.271,662.2a.329.329,0,0,0-.038-.256L590.3,650.462l5.6-10.731c.085-.206.041-.31-.13-.31h-3.432a.346.346,0,0,0-.231.066.479.479,0,0,0-.13.193v.025q-.517,1.11-1.057,2.268-1.447,3.023-2.812,6.09h-.051q-1.419-3.123-2.892-6.166c-.361-.756-.721-1.506-1.082-2.243-.019-.1-.051-.168-.1-.2a.535.535,0,0,0-.231-.038h-3.663a.2.2,0,0,0-.168.092.187.187,0,0,0,.013.218l5.6,11.091-5.78,11.145a.235.235,0,0,0-.051.206q.024.1.18.1h3.508a.42.42,0,0,0,.386-.231q2.064-4.337,4.024-8.722h.025q2.145,4.518,4.154,8.694a.4.4,0,0,0,.155.221.558.558,0,0,0,.285.063H596.1A.16.16,0,0,0,596.271,662.2Z" transform="translate(-569.817 -627.014)" fill="#2e001e"/>
      <path id="Path_36072" data-name="Path 36072" d="M666.237,683.306a.837.837,0,0,1-.013.155c-.01.035-.051.06-.117.079a13.177,13.177,0,0,1-5.419,1.237,7.8,7.8,0,0,1-5.66-2.129q-2.207-2.126-2.208-6.46a9.157,9.157,0,0,1,2.234-6.245,7.739,7.739,0,0,1,6.15-2.553c.225,0,.414.006.569.013s.335.022.541.041v-5.5a.222.222,0,0,1,.051-.155.179.179,0,0,1,.13-.054h3.432a.234.234,0,0,1,.168.041.155.155,0,0,1,.038.114v19.348C666.132,681.81,666.167,682.5,666.237,683.306Zm-3.948-2.063.025-10.475a3.118,3.118,0,0,0-1.237-.206q-4.465.337-4.464,5.444c0,1.958.4,3.363,1.212,4.2a3.988,3.988,0,0,0,2.993,1.262A4.62,4.62,0,0,0,662.289,681.243Z" transform="translate(-625.117 -649.307)" fill="#ff2bc2"/>
      <path id="Path_36073" data-name="Path 36073" d="M670.511,689.836l-.025,10.475a4.622,4.622,0,0,1-1.471.231,3.988,3.988,0,0,1-2.993-1.262c-.807-.841-1.212-2.246-1.212-4.2q0-5.111,4.464-5.445A3.117,3.117,0,0,1,670.511,689.836Z" transform="translate(-633.313 -668.374)" fill="#2e001e"/>
      <path id="Path_36074" data-name="Path 36074" d="M613,684.181a.329.329,0,0,1,.038.256.16.16,0,0,1-.168.1h-3.689a.558.558,0,0,1-.285-.063.4.4,0,0,1-.155-.221q-2.012-4.176-4.154-8.693h-.025q-1.96,4.389-4.024,8.722a.42.42,0,0,1-.386.231h-3.508q-.157,0-.18-.1a.235.235,0,0,1,.051-.206l5.78-11.145-5.6-11.091a.187.187,0,0,1-.013-.218.2.2,0,0,1,.168-.092h3.663a.536.536,0,0,1,.231.038c.054.029.085.092.1.2.361.737.721,1.487,1.082,2.243q1.471,3.047,2.892,6.166h.051q1.367-3.07,2.812-6.09.541-1.158,1.057-2.268v-.025a.478.478,0,0,1,.13-.193.347.347,0,0,1,.231-.066h3.432c.171,0,.215.1.13.31l-5.6,10.731Z" transform="translate(-586.585 -649.252)" fill="#ff2bc2"/>
    </g>
  </g>
</svg>
