<svg xmlns="http://www.w3.org/2000/svg" xmlns:xlink="http://www.w3.org/1999/xlink" width="51" height="50" viewBox="0 0 51 50">
  <defs>
    <clipPath id="clip-path">
      <rect id="Rectangle_143007" data-name="Rectangle 143007" width="51" height="50" transform="translate(660 797)" fill="#fff"/>
    </clipPath>
  </defs>
  <g id="Mask_Group_23" data-name="Mask Group 23" transform="translate(-660 -797)" clip-path="url(#clip-path)">
    <g id="_25231" data-name="25231" transform="translate(660 796.5)">
      <path id="Path_36087" data-name="Path 36087" d="M47.579,13.324a25.389,25.389,0,0,0-9.28-9.28A24.941,24.941,0,0,0,25.5.624a24.944,24.944,0,0,0-12.8,3.42,25.386,25.386,0,0,0-9.28,9.28A24.943,24.943,0,0,0,0,26.123,24.782,24.782,0,0,0,4.864,41.114a24.974,24.974,0,0,0,12.567,9.214,1.486,1.486,0,0,0,1.328-.232,1.3,1.3,0,0,0,.432-1q0-.1-.017-1.793t-.017-2.955l-.764.132a9.742,9.742,0,0,1-1.843.116,14.04,14.04,0,0,1-2.307-.232,5.156,5.156,0,0,1-2.225-1,4.213,4.213,0,0,1-1.461-2.042l-.332-.764A8.3,8.3,0,0,0,9.18,38.874a4.007,4.007,0,0,0-1.444-1.262L7.5,37.446a2.438,2.438,0,0,1-.432-.4,1.821,1.821,0,0,1-.3-.465q-.1-.233.166-.382a2.153,2.153,0,0,1,.963-.148l.664.1a4.847,4.847,0,0,1,1.644.8,5.359,5.359,0,0,1,1.61,1.726,5.853,5.853,0,0,0,1.843,2.075,3.909,3.909,0,0,0,2.175.714A9.442,9.442,0,0,0,17.73,41.3a6.6,6.6,0,0,0,1.494-.5,5.38,5.38,0,0,1,1.627-3.42,22.735,22.735,0,0,1-3.4-.6,13.551,13.551,0,0,1-3.121-1.3,8.939,8.939,0,0,1-2.673-2.224,10.69,10.69,0,0,1-1.743-3.486,16.579,16.579,0,0,1-.681-4.98,9.684,9.684,0,0,1,2.623-6.84,8.926,8.926,0,0,1,.232-6.773,4.653,4.653,0,0,1,2.855.448,19.964,19.964,0,0,1,2.772,1.279q.88.53,1.411.9a23.979,23.979,0,0,1,12.751,0l1.262-.8a17.869,17.869,0,0,1,3.054-1.461,4.351,4.351,0,0,1,2.69-.365,8.84,8.84,0,0,1,.265,6.773,9.686,9.686,0,0,1,2.623,6.84,16.764,16.764,0,0,1-.681,5,10.275,10.275,0,0,1-1.759,3.486,9.282,9.282,0,0,1-2.69,2.208,13.576,13.576,0,0,1-3.121,1.3,22.711,22.711,0,0,1-3.4.6,5.914,5.914,0,0,1,1.726,4.714V49.1a1.323,1.323,0,0,0,.415,1,1.442,1.442,0,0,0,1.311.232,24.971,24.971,0,0,0,12.568-9.213A24.787,24.787,0,0,0,51,26.122,24.964,24.964,0,0,0,47.579,13.324Z"/>
    </g>
  </g>
</svg>
